<svg xmlns="http://www.w3.org/2000/svg" version="1.1" xmlns:xlink="http://www.w3.org/1999/xlink" xmlns:svgjs="http://svgjs.dev/svgjs" width="1000" height="232" viewBox="0 0 1000 232"><g transform="matrix(1,0,0,1,-0.6060606060606233,0.25215863546131345)"><svg viewBox="0 0 396 92" data-background-color="#636365" preserveAspectRatio="xMidYMid meet" height="232" width="1000" xmlns="http://www.w3.org/2000/svg" xmlns:xlink="http://www.w3.org/1999/xlink"><g id="tight-bounds" transform="matrix(1,0,0,1,0.2400000000000091,-0.09999394164844944)"><svg viewBox="0 0 395.52 92.1999878832969" height="92.1999878832969" width="395.52"><g><svg viewBox="0 0 550.7925479926653 128.39569743915342" height="92.1999878832969" width="395.52"><g><rect width="5.332855931707869" height="128.39569743915342" x="135.97933621879022" y="0" fill="#ffffff" opacity="1" stroke-width="0" stroke="transparent" fill-opacity="1" class="rect-o-0" data-fill-palette-color="primary" rx="1%" id="o-0" data-palette-color="#d2d6dc"></rect></g><g transform="matrix(1,0,0,1,155.2725479926653,0.31939228218693927)"><svg viewBox="0 0 395.52 127.75691287477954" height="127.75691287477954" width="395.52"><g id="textblocktransform"><svg viewBox="0 0 395.52 127.75691287477954" height="127.75691287477954" width="395.52" id="textblock"><g><svg viewBox="0 0 395.52 127.75691287477954" height="127.75691287477954" width="395.52"><g transform="matrix(1,0,0,1,0,0)"><svg width="395.52" viewBox="-1.2470552921295166 -33.79999923706055 250.14706420898438 74.6500015258789" height="127.75691287477954" data-palette-color="#d2d6dc"><svg></svg><svg></svg><g class="undefined-text-0" data-fill-palette-color="primary" id="text-0"><path xmlns="http://www.w3.org/2000/svg" d="M17.4 0.3c-2.8 0-5.317-0.517-7.55-1.55-2.233-1.033-4.007-2.56-5.32-4.58-1.32-2.013-1.98-4.453-1.98-7.32v0c0-2 0.35-4.167 1.05-6.5v0c1.533-5 3.85-8.61 6.95-10.83 3.1-2.213 6.417-3.32 9.95-3.32v0c1.9 0 3.583 0.283 5.05 0.85 1.467 0.567 2.817 1.383 4.05 2.45v0l1.35-1.05c0.9-0.7 1.66-1.183 2.28-1.45 0.613-0.267 1.303-0.4 2.07-0.4v0c0.833 0 1.5 0.183 2 0.55 0.5 0.367 0.75 0.9 0.75 1.6v0c0 0.367-0.067 0.733-0.2 1.1v0l-2.8 7.8c-0.3 0.9-0.657 1.533-1.07 1.9-0.42 0.367-1.047 0.55-1.88 0.55v0c-0.867 0-1.573-0.31-2.12-0.93-0.553-0.613-1.18-1.67-1.88-3.17v0c-0.8-1.567-1.45-2.6-1.95-3.1-0.5-0.5-1.233-0.75-2.2-0.75v0c-1.367 0-2.683 0.84-3.95 2.52-1.267 1.687-2.417 4.213-3.45 7.58v0c-0.867 2.833-1.3 5.2-1.3 7.1v0c0 1.667 0.317 2.907 0.95 3.72 0.633 0.82 1.483 1.23 2.55 1.23v0c1.567 0 2.86-0.35 3.88-1.05 1.013-0.7 2.053-1.65 3.12-2.85v0c0.667-0.733 1.21-1.277 1.63-1.63 0.413-0.347 0.853-0.52 1.32-0.52v0c0.6 0 1.233 0.3 1.9 0.9 0.667 0.6 0.983 1.2 0.95 1.8v0c0.033 0.733-0.557 1.867-1.77 3.4-1.22 1.533-2.903 2.907-5.05 4.12-2.153 1.22-4.597 1.83-7.33 1.83zM52.8-33.6c1.867 0 3.593 0.223 5.18 0.67 1.58 0.453 3.187 1.163 4.82 2.13v0l1.15-0.95c0.8-0.633 1.46-1.067 1.98-1.3 0.513-0.233 1.103-0.35 1.77-0.35v0c0.8 0 1.433 0.173 1.9 0.52 0.467 0.353 0.7 0.863 0.7 1.53v0c0 0.267-0.05 0.55-0.15 0.85v0l-2.1 6.9c-0.233 0.8-0.523 1.367-0.87 1.7-0.353 0.333-0.88 0.5-1.58 0.5v0c-0.733 0-1.373-0.227-1.92-0.68-0.553-0.447-1.413-1.37-2.58-2.77v0c-1.167-1.333-2.223-2.277-3.17-2.83-0.953-0.547-1.93-0.82-2.93-0.82v0c-0.733 0-1.35 0.24-1.85 0.72-0.5 0.487-0.75 1.08-0.75 1.78v0c0 0.8 0.4 1.54 1.2 2.22 0.8 0.687 2.05 1.547 3.75 2.58v0c1.733 1.033 3.167 1.967 4.3 2.8 1.133 0.833 2.1 1.867 2.9 3.1 0.8 1.233 1.2 2.65 1.2 4.25v0c0 1.033-0.167 2.067-0.5 3.1v0c-0.8 2.667-2.35 4.69-4.65 6.07-2.3 1.387-4.983 2.08-8.05 2.08v0c-2.3 0-4.233-0.267-5.8-0.8-1.567-0.533-3.167-1.433-4.8-2.7v0l-1.8 1.5c-0.833 0.7-1.517 1.173-2.05 1.42-0.533 0.253-1.133 0.38-1.8 0.38v0c-0.767 0-1.373-0.183-1.82-0.55-0.453-0.367-0.68-0.867-0.68-1.5v0c0-0.333 0.067-0.683 0.2-1.05v0l2.45-7.45c0.267-0.867 0.633-1.483 1.1-1.85 0.467-0.367 1.067-0.55 1.8-0.55v0c0.767 0 1.46 0.267 2.08 0.8 0.613 0.533 1.42 1.5 2.42 2.9v0c1.067 1.533 2.06 2.6 2.98 3.2 0.913 0.6 2.003 0.9 3.27 0.9v0c0.9 0 1.59-0.143 2.07-0.43 0.487-0.28 0.83-0.737 1.03-1.37v0c0.067-0.167 0.1-0.417 0.1-0.75v0c0-0.8-0.383-1.533-1.15-2.2-0.767-0.667-1.95-1.467-3.55-2.4v0c-1.7-1.033-3.083-1.96-4.15-2.78-1.067-0.813-1.99-1.837-2.77-3.07-0.787-1.233-1.18-2.683-1.18-4.35v0c0-1.167 0.183-2.317 0.55-3.45v0c0.7-2.3 2.133-4.15 4.3-5.55 2.167-1.4 4.65-2.1 7.45-2.1zM108.6-33.3c1.833 0 2.75 0.75 2.75 2.25v0c0 0.467-0.1 1.05-0.3 1.75v0l-1.2 4.05c-0.367 1.233-0.817 2.1-1.35 2.6-0.533 0.5-1.3 0.75-2.3 0.75v0c-0.833 0-1.473-0.217-1.92-0.65-0.453-0.433-0.88-1.117-1.28-2.05v0l-0.85-2.05c-0.267-0.633-0.55-1.067-0.85-1.3-0.3-0.233-0.767-0.35-1.4-0.35v0h-1.15l-6.35 22.35c-0.1 0.433-0.15 0.817-0.15 1.15v0c0 0.4 0.06 0.733 0.18 1 0.113 0.267 0.287 0.55 0.52 0.85v0c0.3 0.467 0.45 0.85 0.45 1.15v0c0 0.067-0.033 0.233-0.1 0.5v0c-0.167 0.433-0.49 0.75-0.97 0.95-0.487 0.2-1.18 0.3-2.08 0.3v0h-11.75c-0.7 0-1.24-0.117-1.62-0.35-0.387-0.233-0.58-0.567-0.58-1v0c0-0.2 0.05-0.4 0.15-0.6v0c0.133-0.3 0.293-0.527 0.48-0.68 0.18-0.147 0.453-0.337 0.82-0.57v0c0.5-0.3 0.917-0.633 1.25-1 0.333-0.367 0.617-0.933 0.85-1.7v0l6.3-22.35h-1.15c-0.733 0-1.333 0.117-1.8 0.35-0.467 0.233-0.967 0.667-1.5 1.3v0l-1.65 2.05c-0.767 0.9-1.507 1.573-2.22 2.02-0.72 0.453-1.497 0.68-2.33 0.68v0c-0.767 0-1.367-0.2-1.8-0.6-0.433-0.4-0.65-0.95-0.65-1.65v0c0-0.333 0.05-0.7 0.15-1.1v0l1.3-4.55c0.267-0.933 0.567-1.643 0.9-2.13 0.333-0.48 0.81-0.83 1.43-1.05 0.613-0.213 1.487-0.32 2.62-0.32v0z" fill="#ffffff" fill-rule="nonzero" stroke="none" stroke-width="1" stroke-linecap="butt" stroke-linejoin="miter" stroke-miterlimit="10" stroke-dasharray="" stroke-dashoffset="0" font-family="none" font-weight="none" font-size="none" text-anchor="none" style="mix-blend-mode: normal" data-fill-palette-color="primary" opacity="1"></path><path xmlns="http://www.w3.org/2000/svg" d="M32.6 7.1c1.233 0 2.193 0.267 2.88 0.8 0.68 0.533 1.02 1.267 1.02 2.2v0c0 0.467-0.067 0.917-0.2 1.35v0l-1.3 4.65c-0.233 0.867-0.617 1.483-1.15 1.85-0.533 0.367-1.233 0.55-2.1 0.55v0c-0.833 0-1.5-0.177-2-0.53-0.5-0.347-0.867-0.92-1.1-1.72v0l-0.8-2.85c-0.133-0.5-0.3-0.833-0.5-1-0.2-0.167-0.617-0.25-1.25-0.25v0h-5l-2.8 9.9h0.95c0.467 0 0.877-0.067 1.23-0.2 0.347-0.133 0.72-0.383 1.12-0.75v0l1.55-1.3c0.567-0.5 1.077-0.86 1.53-1.08 0.447-0.213 0.92-0.32 1.42-0.32v0c0.633 0 1.16 0.183 1.58 0.55 0.413 0.367 0.62 0.883 0.62 1.55v0c0 0.267-0.05 0.583-0.15 0.95v0l-2.2 7.6c-0.5 1.633-1.4 2.45-2.7 2.45v0c-1.067 0-1.9-0.55-2.5-1.65v0l-0.9-1.7c-0.233-0.467-0.45-0.767-0.65-0.9-0.2-0.133-0.5-0.2-0.9-0.2v0h-1.45l-2.1 7.45c-0.067 0.2-0.1 0.467-0.1 0.8v0c0 0.467 0.11 0.85 0.33 1.15 0.213 0.3 0.537 0.617 0.97 0.95v0c0.367 0.3 0.617 0.543 0.75 0.73 0.133 0.18 0.2 0.403 0.2 0.67v0c0 0.6-0.267 1.017-0.8 1.25-0.533 0.233-1.317 0.35-2.35 0.35v0h-12.55c-0.867 0-1.517-0.16-1.95-0.48-0.433-0.313-0.583-0.753-0.45-1.32v0c0.067-0.3 0.19-0.543 0.37-0.73 0.187-0.18 0.463-0.387 0.83-0.62v0c0.567-0.333 1.017-0.683 1.35-1.05 0.333-0.367 0.6-0.933 0.8-1.7v0l6.15-21.55c0.133-0.433 0.2-0.833 0.2-1.2v0c0-0.4-0.057-0.733-0.17-1-0.12-0.267-0.297-0.55-0.53-0.85v0c-0.3-0.433-0.45-0.783-0.45-1.05v0c0-0.1 0.033-0.283 0.1-0.55v0c0.133-0.433 0.433-0.74 0.9-0.92 0.467-0.187 1.15-0.28 2.05-0.28v0zM48.5 13.7c4.233 0 7.3 0.673 9.2 2.02 1.9 1.353 2.85 3.08 2.85 5.18v0c0 0.633-0.067 1.217-0.2 1.75v0c-0.5 2.2-1.893 3.773-4.18 4.72-2.28 0.953-4.97 1.43-8.07 1.43v0c-1.567 0-3.033-0.1-4.4-0.3v0c-0.033 1.733 0.433 2.95 1.4 3.65 0.967 0.7 2.317 1.05 4.05 1.05v0c0.8 0 1.567-0.093 2.3-0.28 0.733-0.18 1.667-0.453 2.8-0.82v0c0.933-0.333 1.567-0.5 1.9-0.5v0c0.367 0 0.55 0.217 0.55 0.65v0c0.033 1.167-0.4 2.39-1.3 3.67-0.9 1.287-2.233 2.38-4 3.28-1.767 0.9-3.9 1.35-6.4 1.35v0c-3.7 0-6.733-0.933-9.1-2.8-2.367-1.867-3.55-4.583-3.55-8.15v0c0-1 0.133-2.167 0.4-3.5v0c0.833-4.1 2.66-7.193 5.48-9.28 2.813-2.08 6.237-3.12 10.27-3.12zM44.05 25.5c0.133 0.033 0.317 0.05 0.55 0.05v0c1.4 0 2.467-0.65 3.2-1.95 0.733-1.3 1.083-2.75 1.05-4.35v0c-0.033-0.933-0.3-1.4-0.8-1.4v0c-0.367 0-0.8 0.29-1.3 0.87-0.5 0.587-0.99 1.463-1.47 2.63-0.487 1.167-0.897 2.55-1.23 4.15zM76.5 13.7c4.233 0 7.3 0.673 9.2 2.02 1.9 1.353 2.85 3.08 2.85 5.18v0c0 0.633-0.067 1.217-0.2 1.75v0c-0.5 2.2-1.893 3.773-4.18 4.72-2.28 0.953-4.97 1.43-8.07 1.43v0c-1.567 0-3.033-0.1-4.4-0.3v0c-0.033 1.733 0.433 2.95 1.4 3.65 0.967 0.7 2.317 1.05 4.05 1.05v0c0.8 0 1.567-0.093 2.3-0.28 0.733-0.18 1.667-0.453 2.8-0.82v0c0.933-0.333 1.567-0.5 1.9-0.5v0c0.367 0 0.55 0.217 0.55 0.65v0c0.033 1.167-0.4 2.39-1.3 3.67-0.9 1.287-2.233 2.38-4 3.28-1.767 0.9-3.9 1.35-6.4 1.35v0c-3.7 0-6.733-0.933-9.1-2.8-2.367-1.867-3.55-4.583-3.55-8.15v0c0-1 0.133-2.167 0.4-3.5v0c0.833-4.1 2.657-7.193 5.47-9.28 2.82-2.08 6.247-3.12 10.28-3.12zM72.05 25.5c0.133 0.033 0.317 0.05 0.55 0.05v0c1.4 0 2.467-0.65 3.2-1.95 0.733-1.3 1.083-2.75 1.05-4.35v0c-0.033-0.933-0.3-1.4-0.8-1.4v0c-0.367 0-0.8 0.29-1.3 0.87-0.5 0.587-0.99 1.463-1.47 2.63-0.487 1.167-0.897 2.55-1.23 4.15zM115.5 33.2c-0.067 0.267-0.1 0.45-0.1 0.55v0c0 0.233 0.067 0.417 0.2 0.55 0.133 0.133 0.3 0.2 0.5 0.2v0c0.4 0 0.743-0.177 1.03-0.53 0.28-0.347 0.47-0.52 0.57-0.52v0c0.167 0 0.3 0.117 0.4 0.35 0.1 0.233 0.15 0.5 0.15 0.8v0c0.033 0.9-0.31 1.817-1.03 2.75-0.713 0.933-1.67 1.7-2.87 2.3-1.2 0.6-2.5 0.9-3.9 0.9v0c-1.667 0-3.117-0.317-4.35-0.95-1.233-0.633-2.083-1.467-2.55-2.5v0c-0.9 1.167-1.933 2.033-3.1 2.6-1.167 0.567-2.4 0.85-3.7 0.85v0c-1.533 0-2.96-0.383-4.28-1.15-1.313-0.767-2.36-1.86-3.14-3.28-0.787-1.413-1.18-3.02-1.18-4.82v0c0-3.033 0.577-5.893 1.73-8.58 1.147-2.68 2.753-4.847 4.82-6.5 2.067-1.647 4.417-2.47 7.05-2.47v0c1.433 0 2.657 0.167 3.67 0.5 1.02 0.333 1.947 0.833 2.78 1.5v0l1.7-5.6c0.1-0.3 0.15-0.55 0.15-0.75v0c0-0.367-0.09-0.667-0.27-0.9-0.187-0.233-0.43-0.467-0.73-0.7v0c-0.333-0.267-0.573-0.5-0.72-0.7-0.153-0.2-0.18-0.467-0.08-0.8v0c0.2-0.767 1.25-1.433 3.15-2 1.9-0.567 3.883-0.85 5.95-0.85v0c1.933 0 3.36 0.367 4.28 1.1 0.913 0.733 1.37 1.733 1.37 3v0c0 0.733-0.117 1.45-0.35 2.15v0zM107.15 19.15c-0.533-0.467-1.117-0.7-1.75-0.7v0c-0.967 0-1.917 0.717-2.85 2.15-0.933 1.433-1.683 3.167-2.25 5.2-0.567 2.033-0.833 3.867-0.8 5.5v0c0 1.833 0.6 2.75 1.8 2.75v0c0.433 0 0.8-0.177 1.1-0.53 0.3-0.347 0.583-0.92 0.85-1.72v0zM145.8 13.75c2.467 0 4.44 0.883 5.92 2.65 1.487 1.767 2.23 4.1 2.23 7v0c0 1.5-0.183 2.967-0.55 4.4v0c-1.067 4.3-2.89 7.55-5.47 9.75-2.587 2.2-5.563 3.3-8.93 3.3v0c-1.9 0-3.543-0.327-4.93-0.98-1.38-0.647-2.487-1.57-3.32-2.77v0l-1.8 1.55c-0.7 0.6-1.383 1.04-2.05 1.32-0.667 0.287-1.433 0.43-2.3 0.43v0h-2.2c-0.833 0-1.477-0.177-1.93-0.53-0.447-0.347-0.67-0.853-0.67-1.52v0c0-0.3 0.05-0.65 0.15-1.05v0l8.35-27.15c0.1-0.3 0.15-0.55 0.15-0.75v0c0-0.567-0.35-1.1-1.05-1.6v0c-0.333-0.3-0.567-0.543-0.7-0.73-0.133-0.18-0.15-0.42-0.05-0.72v0c0.233-0.767 1.29-1.443 3.17-2.03 1.887-0.58 3.863-0.87 5.93-0.87v0c1.933 0 3.36 0.373 4.28 1.12 0.913 0.753 1.37 1.763 1.37 3.03v0c0 0.7-0.117 1.4-0.35 2.1v0l-2.1 6.8c1.933-1.833 4.217-2.75 6.85-2.75zM140.15 27.5c0.667-2.267 1-4.1 1-5.5v0c0-1.533-0.45-2.3-1.35-2.3v0c-0.8 0-1.55 0.417-2.25 1.25v0l-3.25 10.6-0.3 0.95v0c-0.167 0.5-0.25 1.017-0.25 1.55v0c0 1.167 0.55 1.75 1.65 1.75v0c0.8 0 1.567-0.583 2.3-1.75 0.733-1.167 1.55-3.35 2.45-6.55zM172.5 13.95c3.833 0 6.9 0.707 9.2 2.12 2.3 1.42 3.45 3.58 3.45 6.48v0c0 1.1-0.2 2.35-0.6 3.75v0l-2.05 6.9c-0.033 0.133-0.05 0.3-0.05 0.5v0c0 0.533 0.217 0.8 0.65 0.8v0c0.4 0 0.743-0.177 1.03-0.53 0.28-0.347 0.47-0.52 0.57-0.52v0c0.167 0 0.31 0.117 0.43 0.35 0.113 0.233 0.17 0.5 0.17 0.8v0c0.033 0.9-0.307 1.817-1.02 2.75-0.72 0.933-1.68 1.7-2.88 2.3-1.2 0.6-2.517 0.9-3.95 0.9v0c-1.733 0-3.217-0.317-4.45-0.95-1.233-0.633-2.083-1.567-2.55-2.8v0c-1 1.2-2.183 2.123-3.55 2.77-1.367 0.653-2.833 0.98-4.4 0.98v0c-1.767 0-3.25-0.343-4.45-1.03-1.2-0.68-2.09-1.563-2.67-2.65-0.587-1.08-0.88-2.22-0.88-3.42v0c0-0.533 0.05-1.05 0.15-1.55v0c0.533-2.3 1.693-4.033 3.48-5.2 1.78-1.167 3.903-1.75 6.37-1.75v0c2.767 0 5.483 0.433 8.15 1.3v0l1.25-3.3c0.433-1.4 0.65-2.483 0.65-3.25v0c-0.033-0.8-0.3-1.4-0.8-1.8-0.5-0.4-1.267-0.6-2.3-0.6v0c0.2 0.533 0.3 1.083 0.3 1.65v0c0 1.233-0.467 2.3-1.4 3.2-0.933 0.9-2.267 1.35-4 1.35v0c-1.633 0-2.907-0.36-3.82-1.08-0.92-0.713-1.38-1.603-1.38-2.67v0c0-1.667 0.933-3.05 2.8-4.15 1.867-1.1 4.717-1.65 8.55-1.65zM169.7 29.1c-0.933 0-1.69 0.357-2.27 1.07-0.587 0.72-0.88 1.497-0.88 2.33v0c0 0.533 0.127 0.967 0.38 1.3 0.247 0.333 0.603 0.5 1.07 0.5v0c0.433 0 0.91-0.177 1.43-0.53 0.513-0.347 0.887-0.87 1.12-1.57v0l1.05-2.95c-0.567-0.1-1.2-0.15-1.9-0.15zM204 13.7c2.033 0 3.817 0.29 5.35 0.87 1.533 0.587 2.727 1.387 3.58 2.4 0.847 1.02 1.27 2.147 1.27 3.38v0c0 1.333-0.457 2.433-1.37 3.3-0.92 0.867-2.163 1.3-3.73 1.3v0c-1.6 0-2.85-0.41-3.75-1.23-0.9-0.813-1.35-1.92-1.35-3.32v0c0-0.667 0.1-1.367 0.3-2.1v0c-1.4 0.367-2.64 1.09-3.72 2.17-1.087 1.087-1.813 2.513-2.18 4.28v0c-0.2 1-0.3 1.9-0.3 2.7v0c0 1.8 0.5 3.167 1.5 4.1 1 0.933 2.433 1.4 4.3 1.4v0c1.067 0 1.983-0.11 2.75-0.33 0.767-0.213 1.55-0.503 2.35-0.87v0c0.667-0.333 1.15-0.5 1.45-0.5v0c0.2 0 0.333 0.04 0.4 0.12 0.067 0.087 0.1 0.263 0.1 0.53v0c0.033 1.233-0.473 2.523-1.52 3.87-1.053 1.353-2.503 2.487-4.35 3.4-1.853 0.92-3.93 1.38-6.23 1.38v0c-2.4 0-4.523-0.443-6.37-1.33-1.853-0.88-3.287-2.147-4.3-3.8-1.02-1.647-1.53-3.57-1.53-5.77v0c0-1.033 0.133-2.183 0.4-3.45v0c0.9-4.133 2.893-7.25 5.98-9.35 3.08-2.1 6.737-3.15 10.97-3.15zM242.6 13.95c1.9 0 3.427 0.523 4.58 1.57 1.147 1.053 1.72 2.33 1.72 3.83v0c0 1.6-0.483 2.85-1.45 3.75-0.967 0.9-2.233 1.35-3.8 1.35v0c-1.4 0-2.483-0.36-3.25-1.08-0.767-0.713-1.133-1.52-1.1-2.42v0c-0.333-0.067-0.617 0.067-0.85 0.4-0.233 0.333-0.483 0.983-0.75 1.95v0c-0.167 0.633-0.483 1.217-0.95 1.75v0c2.267 0.167 3.95 0.683 5.05 1.55 1.1 0.867 1.65 1.983 1.65 3.35v0c0 0.667-0.117 1.333-0.35 2v0l-0.4 1.55c-0.067 0.167-0.1 0.383-0.1 0.65v0c0 0.467 0.217 0.7 0.65 0.7v0c0.4 0 0.743-0.177 1.03-0.53 0.28-0.347 0.47-0.52 0.57-0.52v0c0.167 0 0.3 0.107 0.4 0.32 0.1 0.22 0.15 0.48 0.15 0.78v0c0.033 0.967-0.257 1.907-0.87 2.82-0.62 0.92-1.553 1.67-2.8 2.25-1.253 0.587-2.763 0.88-4.53 0.88v0c-2.133 0-3.907-0.533-5.32-1.6-1.42-1.067-2.13-2.467-2.13-4.2v0c0-0.633 0.133-1.35 0.4-2.15v0l0.95-2.5c0.167-0.6 0.25-1.033 0.25-1.3v0c0-0.433-0.14-0.75-0.42-0.95-0.287-0.2-0.73-0.3-1.33-0.3v0h-1l-2.25 7.35c-0.1 0.4-0.15 0.75-0.15 1.05v0c0 0.433 0.083 0.773 0.25 1.02 0.167 0.253 0.4 0.497 0.7 0.73v0c0.233 0.233 0.4 0.423 0.5 0.57 0.1 0.153 0.117 0.347 0.05 0.58v0c-0.167 0.433-0.5 0.75-1 0.95-0.5 0.2-1.267 0.3-2.3 0.3v0h-11.4c-0.867 0-1.5-0.143-1.9-0.43-0.4-0.28-0.533-0.653-0.4-1.12v0c0.133-0.4 0.483-0.75 1.05-1.05v0c0.5-0.267 0.917-0.583 1.25-0.95 0.333-0.367 0.617-0.95 0.85-1.75v0l7.6-24.95c0.1-0.3 0.15-0.55 0.15-0.75v0c0-0.367-0.09-0.667-0.27-0.9-0.187-0.233-0.43-0.467-0.73-0.7v0c-0.333-0.267-0.573-0.5-0.72-0.7-0.153-0.2-0.18-0.467-0.08-0.8v0c0.2-0.767 1.25-1.433 3.15-2 1.9-0.567 3.883-0.85 5.95-0.85v0c1.933 0 3.35 0.357 4.25 1.07 0.9 0.72 1.35 1.713 1.35 2.98v0c0 0.767-0.117 1.5-0.35 2.2v0l-4.35 14.2h1.65c0.667 0 1.21-0.2 1.63-0.6 0.413-0.4 0.737-0.983 0.97-1.75v0c0.833-2.467 1.917-4.35 3.25-5.65 1.333-1.3 3.1-1.95 5.3-1.95z" fill="#ffffff" fill-rule="nonzero" stroke="none" stroke-width="1" stroke-linecap="butt" stroke-linejoin="miter" stroke-miterlimit="10" stroke-dasharray="" stroke-dashoffset="0" font-family="none" font-weight="none" font-size="none" text-anchor="none" style="mix-blend-mode: normal" data-fill-palette-color="primary" opacity="1"></path></g></svg></g></svg></g></svg></g></svg></g><g transform="matrix(1,0,0,1,0,0.31939228218693927)"><svg viewBox="0 0 122.01898037662302 127.75691287477954" height="127.75691287477954" width="122.01898037662302"><g><svg xmlns="http://www.w3.org/2000/svg" xmlns:xlink="http://www.w3.org/1999/xlink" version="1.1" x="0" y="0" viewBox="10 8 80 83.76199340820312" enable-background="new 0 0 100 100" xml:space="preserve" height="127.75691287477954" width="122.01898037662302" class="icon-icon-0" data-fill-palette-color="accent" id="icon-0"><path d="M66 23.69c0-0.934-0.757-1.69-1.69-1.69H24.69C23.757 22 23 22.757 23 23.69v5.619c0 0.934 0.757 1.69 1.69 1.69H64.31c0.934 0 1.69-0.757 1.69-1.69V23.69z" fill="#ffffff" data-fill-palette-color="accent"></path><path d="M78 38.69c0-0.934-0.757-1.69-1.691-1.69H24.691C23.757 37 23 37.757 23 38.69v5.619c0 0.934 0.757 1.69 1.691 1.69h51.617C77.243 46 78 45.243 78 44.31V38.69z" fill="#ffffff" data-fill-palette-color="accent"></path><path d="M48 54.689C48 53.757 47.243 53 46.31 53H24.69C23.757 53 23 53.757 23 54.689v5.621C23 61.243 23.757 62 24.69 62H46.31c0.934 0 1.69-0.757 1.69-1.689V54.689z" fill="#ffffff" data-fill-palette-color="accent"></path><path d="M77.663 8H23.258C15.632 8 10 14.41 10 21.528v39.343C10 68.24 15.89 74 23.258 74H32v13.613c0 1.658 0.92 3.158 2.443 3.812 0.528 0.227 1.052 0.337 1.604 0.337 1.044 0 2.054-0.745 2.84-1.491L55.65 74h22.013C84.781 74 90 68.499 90 60.871V21.528C90 14.169 85.023 8 77.663 8zM82 60.871C82 63.532 80.511 66 77.663 66H53.996c-1.062 0-2.168 0.609-2.938 1.342L40 77.957v-7.402C40 68.262 38.306 66 36.014 66H23.258C20.466 66 18 63.664 18 60.871V21.528C18 18.681 20.598 17 23.258 17h54.405C80.465 17 82 18.728 82 21.528V60.871z" fill="#ffffff" data-fill-palette-color="accent"></path></svg></g></svg></g></svg></g><defs></defs></svg><rect width="395.52" height="92.1999878832969" fill="none" stroke="none" visibility="hidden"></rect></g></svg></g></svg>